<?xml version="1.0" encoding="utf-8"?>
<!-- Generator: Adobe Illustrator 23.0.1, SVG Export Plug-In . SVG Version: 6.00 Build 0)  -->
<svg version="1.1" id="Layer_1" xmlns="http://www.w3.org/2000/svg" xmlns:xlink="http://www.w3.org/1999/xlink" x="0px" y="0px"
	 viewBox="0 0 254 65.9" style="enable-background:new 0 0 254 65.9;" xml:space="preserve">
<style type="text/css">
	.st0{fill:#152A4E;}
	.st1{fill:#0077BF;}
</style>
<title>logo</title>
<rect x="2.2" y="1.1" class="st0" width="12.4" height="37.3"/>
<path class="st0" d="M32.6,9.4c-0.8,0.1-1.2,0.8-1.2,2.1v26.8H18.9V11.5c0-7.4,4.7-10.9,13.9-10.9c4,0,7.1,0.8,9.4,2.6
	c2.9,2,5.5,4.5,7.6,7.4l14.7,18.3c0.5,0.6,1.2,1,2,1.2c0.9,0,1.2-0.7,1.2-2.1V1.1h12.4v26.8c0,7.2-4.7,10.9-14,10.9
	c-3.2,0.1-6.4-0.7-9.1-2.4c-2.9-2.2-5.5-4.8-7.8-7.6L34,10.1C33.7,9.6,33.1,9.4,32.6,9.4z"/>
<path class="st1" d="M111.6,0.5c-5,0-9.2,0.9-12.5,2.7c-3.3,1.8-5.8,4.7-7.1,8.2L81.1,38.4h13.5c10.6-24.6,4.4-10.5,10.6-24.8
	c0.5-1.5,1.4-2.7,2.6-3.7c1.2-0.8,2.6-1.2,4.1-1.2c1.5,0,2.9,0.4,4.1,1.2c1.2,0.9,2.1,2.2,2.5,3.7l10.5,24.8h13.5l-10.8-26.8
	C128.4,4.2,121.8,0.5,111.6,0.5z"/>
<path class="st0" d="M144.7,27.8L133.9,0.9h13.5l10.4,24.8c1.2,3.2,3.4,4.9,6.6,4.9c3.1,0.1,5.8-1.9,6.6-4.9l10.6-24.8h13.5
	l-10.9,26.9c-2.9,7.2-9.4,10.9-19.6,10.9S148,35.1,144.7,27.8z"/>
<path class="st0" d="M211.8,1.5v37.3h-12.4V1.5H211.8z"/>
<path class="st0" d="M222.6,1.1H253v7.7h-24.4v29.6h-12.3V8.2c0-3.9,2.6-7.1,5.7-7.1L222.6,1.1z"/>
<g>
	<path class="st0" d="M10.6,55.6c0,1.1-0.4,2-1.2,2.7s-2,1-3.4,1S3.3,59,2.4,58.6v-2c0.6,0.3,1.2,0.5,1.9,0.7s1.3,0.2,1.8,0.2
		C7,57.5,7.6,57.3,8,57s0.6-0.7,0.6-1.3c0-0.5-0.2-0.9-0.5-1.2s-1.1-0.7-2.3-1.2c-1.2-0.5-2-1-2.5-1.6s-0.7-1.3-0.7-2.2
		c0-1.1,0.4-1.9,1.1-2.5S5.5,46,6.8,46c1.2,0,2.5,0.3,3.7,0.8l-0.7,1.7c-1.1-0.5-2.2-0.7-3.1-0.7c-0.7,0-1.2,0.1-1.5,0.4
		c-0.4,0.3-0.5,0.7-0.5,1.2c0,0.3,0.1,0.6,0.2,0.9C5,50.6,5.2,50.8,5.6,51s0.9,0.5,1.7,0.8c0.9,0.4,1.6,0.8,2.1,1.1s0.8,0.7,1,1.2
		S10.6,55,10.6,55.6z"/>
	<path class="st0" d="M13.1,46.8c0-0.4,0.1-0.7,0.3-0.9s0.5-0.3,0.9-0.3c0.4,0,0.6,0.1,0.8,0.3s0.3,0.5,0.3,0.9
		c0,0.4-0.1,0.6-0.3,0.8c-0.2,0.2-0.5,0.3-0.8,0.3c-0.4,0-0.7-0.1-0.9-0.3C13.2,47.4,13.1,47.1,13.1,46.8z M15.3,59.1h-2.1v-9.7h2.1
		V59.1z"/>
	<path class="st0" d="M26.8,59.1h-2.1v-6c0-0.7-0.1-1.3-0.4-1.7c-0.3-0.4-0.7-0.5-1.3-0.5c-0.8,0-1.4,0.3-1.8,0.8
		c-0.4,0.5-0.6,1.4-0.6,2.6v4.8h-2.1v-9.7h1.6l0.3,1.3h0.1c0.3-0.5,0.7-0.8,1.2-1.1s1.1-0.4,1.7-0.4c1.5,0,2.5,0.5,3,1.5h0.1
		c0.3-0.5,0.7-0.9,1.2-1.1s1.1-0.4,1.8-0.4c1.2,0,2,0.3,2.5,0.9s0.8,1.5,0.8,2.7v6.3h-2.1v-6c0-0.7-0.1-1.3-0.4-1.7
		c-0.3-0.4-0.7-0.5-1.3-0.5c-0.8,0-1.4,0.3-1.8,0.8c-0.4,0.5-0.6,1.3-0.6,2.3V59.1z"/>
	<path class="st0" d="M41.1,59.2c-1.2,0-2.2-0.4-2.9-1.3h-0.1c0.1,0.8,0.1,1.3,0.1,1.5v4h-2.1v-14h1.7c0,0.2,0.1,0.6,0.3,1.3h0.1
		c0.6-1,1.6-1.5,2.9-1.5c1.2,0,2.2,0.4,2.8,1.3s1,2.1,1,3.7s-0.3,2.8-1,3.7S42.4,59.2,41.1,59.2z M40.6,50.9c-0.8,0-1.4,0.2-1.8,0.7
		s-0.6,1.2-0.6,2.3v0.3c0,1.2,0.2,2,0.6,2.6s1,0.8,1.8,0.8c0.7,0,1.3-0.3,1.7-0.9s0.6-1.4,0.6-2.5c0-1.1-0.2-1.9-0.6-2.5
		S41.4,50.9,40.6,50.9z"/>
	<path class="st0" d="M49.9,59.1h-2.1V45.4h2.1V59.1z"/>
	<path class="st0" d="M53,46.8c0-0.4,0.1-0.7,0.3-0.9s0.5-0.3,0.9-0.3c0.4,0,0.6,0.1,0.8,0.3s0.3,0.5,0.3,0.9c0,0.4-0.1,0.6-0.3,0.8
		c-0.2,0.2-0.5,0.3-0.8,0.3c-0.4,0-0.7-0.1-0.9-0.3C53.1,47.4,53,47.1,53,46.8z M55.2,59.1h-2.1v-9.7h2.1V59.1z"/>
	<path class="st0" d="M63.4,50.9h-2.4v8.2H59v-8.2h-1.6v-1l1.6-0.6v-0.6c0-1.1,0.3-2,0.8-2.6c0.5-0.6,1.4-0.8,2.5-0.8
		c0.7,0,1.4,0.1,2.1,0.4l-0.5,1.6c-0.5-0.2-1-0.2-1.5-0.2c-0.5,0-0.8,0.1-1,0.4c-0.2,0.3-0.3,0.7-0.3,1.3v0.6h2.4V50.9z"/>
	<path class="st0" d="M64,49.4h2.3l2,5.5c0.3,0.8,0.5,1.5,0.6,2.2h0.1c0.1-0.3,0.1-0.7,0.3-1.2s0.9-2.6,2.2-6.6h2.2l-4.2,11
		c-0.8,2-2,3-3.8,3c-0.5,0-0.9,0-1.3-0.1v-1.6c0.3,0.1,0.7,0.1,1.1,0.1c1,0,1.7-0.6,2.1-1.7l0.4-0.9L64,49.4z"/>
	<path class="st0" d="M77.6,57.2c-0.3,1.1-0.8,2.5-1.5,4.2h-1.5c0.4-1.6,0.7-3.1,0.9-4.4h2L77.6,57.2z"/>
	<path class="st0" d="M86.3,47.8c-1.2,0-2.2,0.4-2.8,1.3s-1,2-1,3.5c0,1.6,0.3,2.8,1,3.6s1.6,1.2,2.9,1.2c0.5,0,1.1-0.1,1.6-0.2
		s1-0.2,1.6-0.4v1.8c-1,0.4-2.2,0.6-3.4,0.6c-1.9,0-3.3-0.6-4.3-1.7s-1.5-2.8-1.5-4.9c0-1.3,0.2-2.5,0.7-3.5s1.2-1.8,2.1-2.3
		s2-0.8,3.3-0.8c1.3,0,2.5,0.3,3.6,0.8l-0.8,1.7c-0.4-0.2-0.9-0.4-1.4-0.5C87.3,47.9,86.8,47.8,86.3,47.8z"/>
	<path class="st0" d="M101,54.2c0,1.6-0.4,2.8-1.2,3.7s-1.9,1.3-3.4,1.3c-0.9,0-1.7-0.2-2.4-0.6s-1.2-1-1.6-1.8s-0.6-1.7-0.6-2.7
		c0-1.6,0.4-2.8,1.2-3.7s1.9-1.3,3.4-1.3c1.4,0,2.5,0.5,3.3,1.4C100.6,51.4,101,52.7,101,54.2z M93.9,54.2c0,2.2,0.8,3.4,2.5,3.4
		c1.6,0,2.5-1.1,2.5-3.4c0-2.2-0.8-3.3-2.5-3.3c-0.9,0-1.5,0.3-1.9,0.9S93.9,53.1,93.9,54.2z"/>
	<path class="st0" d="M105.8,59.1h-2.1V45.4h2.1V59.1z"/>
	<path class="st0" d="M111.2,59.1h-2.1V45.4h2.1V59.1z"/>
	<path class="st0" d="M120.6,59.1l-0.4-1.4h-0.1c-0.5,0.6-0.9,1-1.4,1.2c-0.5,0.2-1.1,0.3-1.8,0.3c-1,0-1.7-0.3-2.2-0.8
		s-0.8-1.2-0.8-2.2c0-1,0.4-1.8,1.1-2.3s1.9-0.8,3.4-0.8l1.7-0.1v-0.5c0-0.6-0.1-1.1-0.4-1.4c-0.3-0.3-0.7-0.5-1.3-0.5
		c-0.5,0-1,0.1-1.4,0.2s-0.9,0.3-1.3,0.5l-0.7-1.5c0.5-0.3,1.1-0.5,1.7-0.6c0.6-0.1,1.2-0.2,1.8-0.2c1.2,0,2.2,0.3,2.8,0.8
		s0.9,1.4,0.9,2.5v6.5H120.6z M117.5,57.7c0.8,0,1.4-0.2,1.8-0.6c0.5-0.4,0.7-1,0.7-1.8v-0.8l-1.2,0.1c-1,0-1.7,0.2-2.1,0.5
		c-0.4,0.3-0.7,0.7-0.7,1.3c0,0.4,0.1,0.8,0.4,1C116.6,57.5,117,57.7,117.5,57.7z"/>
	<path class="st0" d="M130.3,49.2c1.2,0,2.2,0.4,2.8,1.3c0.7,0.9,1,2.1,1,3.7c0,1.6-0.3,2.8-1,3.7c-0.7,0.9-1.6,1.3-2.9,1.3
		c-1.2,0-2.2-0.4-2.9-1.3h-0.1l-0.4,1.2h-1.5V45.4h2.1v3.3c0,0.2,0,0.6,0,1.1s0,0.8-0.1,0.9h0.1C128,49.7,129,49.2,130.3,49.2z
		 M129.7,50.9c-0.8,0-1.4,0.2-1.8,0.7c-0.4,0.5-0.6,1.3-0.6,2.5v0.1c0,1.2,0.2,2,0.6,2.6c0.4,0.5,1,0.8,1.8,0.8
		c0.7,0,1.3-0.3,1.7-0.9c0.4-0.6,0.6-1.4,0.6-2.5C132,52,131.2,50.9,129.7,50.9z"/>
	<path class="st0" d="M145.5,54.2c0,1.6-0.4,2.8-1.2,3.7s-1.9,1.3-3.4,1.3c-0.9,0-1.7-0.2-2.4-0.6s-1.2-1-1.6-1.8s-0.6-1.7-0.6-2.7
		c0-1.6,0.4-2.8,1.2-3.7s1.9-1.3,3.4-1.3c1.4,0,2.5,0.5,3.3,1.4C145.1,51.4,145.5,52.7,145.5,54.2z M138.4,54.2
		c0,2.2,0.8,3.4,2.5,3.4c1.6,0,2.5-1.1,2.5-3.4c0-2.2-0.8-3.3-2.5-3.3c-0.9,0-1.5,0.3-1.9,0.9S138.4,53.1,138.4,54.2z"/>
	<path class="st0" d="M153.2,49.2c0.4,0,0.8,0,1,0.1l-0.2,1.9c-0.3-0.1-0.6-0.1-0.9-0.1c-0.8,0-1.5,0.3-2,0.8s-0.8,1.2-0.8,2.1v5.1
		h-2.1v-9.7h1.6l0.3,1.7h0.1c0.3-0.6,0.7-1,1.3-1.4C152,49.3,152.6,49.2,153.2,49.2z"/>
	<path class="st0" d="M162.4,59.1l-0.4-1.4h-0.1c-0.5,0.6-0.9,1-1.4,1.2c-0.5,0.2-1.1,0.3-1.8,0.3c-1,0-1.7-0.3-2.2-0.8
		c-0.5-0.5-0.8-1.2-0.8-2.2c0-1,0.4-1.8,1.1-2.3s1.9-0.8,3.4-0.8l1.7-0.1v-0.5c0-0.6-0.1-1.1-0.4-1.4c-0.3-0.3-0.7-0.5-1.3-0.5
		c-0.5,0-1,0.1-1.4,0.2s-0.9,0.3-1.3,0.5l-0.7-1.5c0.5-0.3,1.1-0.5,1.7-0.6c0.6-0.1,1.2-0.2,1.8-0.2c1.2,0,2.2,0.3,2.8,0.8
		s0.9,1.4,0.9,2.5v6.5H162.4z M159.4,57.7c0.8,0,1.4-0.2,1.8-0.6c0.5-0.4,0.7-1,0.7-1.8v-0.8l-1.2,0.1c-1,0-1.7,0.2-2.1,0.5
		c-0.4,0.3-0.7,0.7-0.7,1.3c0,0.4,0.1,0.8,0.4,1C158.5,57.5,158.8,57.7,159.4,57.7z"/>
	<path class="st0" d="M170.8,57.6c0.5,0,1-0.1,1.5-0.2v1.6c-0.2,0.1-0.5,0.2-0.9,0.3c-0.4,0.1-0.7,0.1-1.1,0.1c-2,0-2.9-1-2.9-3.1
		v-5.2H166V50l1.4-0.8l0.7-2.1h1.3v2.2h2.8v1.6h-2.8v5.2c0,0.5,0.1,0.9,0.4,1.1C170,57.5,170.4,57.6,170.8,57.6z"/>
	<path class="st0" d="M178.8,59.2c-1.5,0-2.7-0.4-3.5-1.3c-0.9-0.9-1.3-2.1-1.3-3.6c0-1.6,0.4-2.8,1.2-3.7s1.9-1.4,3.3-1.4
		c1.3,0,2.3,0.4,3,1.2s1.1,1.9,1.1,3.2v1.1h-6.5c0,0.9,0.3,1.7,0.8,2.2s1.2,0.8,2,0.8c0.6,0,1.1-0.1,1.6-0.2s1-0.3,1.6-0.5v1.7
		c-0.5,0.2-1,0.4-1.5,0.5S179.5,59.2,178.8,59.2z M178.5,50.7c-0.7,0-1.2,0.2-1.6,0.6c-0.4,0.4-0.6,1-0.7,1.8h4.4
		c0-0.8-0.2-1.4-0.6-1.8C179.6,50.9,179.1,50.7,178.5,50.7z"/>
	<path class="st0" d="M187.5,57.2c-0.3,1.1-0.8,2.5-1.5,4.2h-1.5c0.4-1.6,0.7-3.1,0.9-4.4h2L187.5,57.2z"/>
	<path class="st0" d="M201.2,52.5c0,2.1-0.6,3.7-1.8,4.9c-1.2,1.1-2.9,1.7-5.1,1.7h-3.6V46.2h4c2,0,3.6,0.6,4.8,1.7
		S201.2,50.5,201.2,52.5z M198.9,52.6c0-3.1-1.4-4.6-4.3-4.6h-1.8v9.3h1.5C197.4,57.3,198.9,55.7,198.9,52.6z"/>
	<path class="st0" d="M208.3,59.2c-1.5,0-2.7-0.4-3.5-1.3c-0.9-0.9-1.3-2.1-1.3-3.6c0-1.6,0.4-2.8,1.2-3.7s1.9-1.4,3.3-1.4
		c1.3,0,2.3,0.4,3,1.2s1.1,1.9,1.1,3.2v1.1h-6.5c0,0.9,0.3,1.7,0.8,2.2s1.2,0.8,2,0.8c0.6,0,1.1-0.1,1.6-0.2s1-0.3,1.6-0.5v1.7
		c-0.5,0.2-1,0.4-1.5,0.5S209,59.2,208.3,59.2z M207.9,50.7c-0.7,0-1.2,0.2-1.6,0.6c-0.4,0.4-0.6,1-0.7,1.8h4.4
		c0-0.8-0.2-1.4-0.6-1.8C209.1,50.9,208.6,50.7,207.9,50.7z"/>
	<path class="st0" d="M216.8,59.1h-2.1V45.4h2.1V59.1z"/>
	<path class="st0" d="M220,46.8c0-0.4,0.1-0.7,0.3-0.9c0.2-0.2,0.5-0.3,0.9-0.3c0.4,0,0.6,0.1,0.8,0.3c0.2,0.2,0.3,0.5,0.3,0.9
		c0,0.4-0.1,0.6-0.3,0.8c-0.2,0.2-0.5,0.3-0.8,0.3c-0.4,0-0.7-0.1-0.9-0.3C220.1,47.4,220,47.1,220,46.8z M222.2,59.1h-2.1v-9.7h2.1
		V59.1z"/>
	<path class="st0" d="M227.8,59.1l-3.7-9.7h2.2l2,5.7c0.3,0.9,0.5,1.7,0.6,2.3h0.1c0.1-0.4,0.3-1.2,0.6-2.3l2-5.7h2.2l-3.7,9.7
		H227.8z"/>
	<path class="st0" d="M239.8,59.2c-1.5,0-2.7-0.4-3.5-1.3c-0.9-0.9-1.3-2.1-1.3-3.6c0-1.6,0.4-2.8,1.2-3.7s1.9-1.4,3.3-1.4
		c1.3,0,2.3,0.4,3,1.2s1.1,1.9,1.1,3.2v1.1h-6.5c0,0.9,0.3,1.7,0.8,2.2s1.2,0.8,2,0.8c0.6,0,1.1-0.1,1.6-0.2s1-0.3,1.6-0.5v1.7
		c-0.5,0.2-1,0.4-1.5,0.5S240.4,59.2,239.8,59.2z M239.4,50.7c-0.7,0-1.2,0.2-1.6,0.6c-0.4,0.4-0.6,1-0.7,1.8h4.4
		c0-0.8-0.2-1.4-0.6-1.8C240.6,50.9,240.1,50.7,239.4,50.7z"/>
	<path class="st0" d="M251.2,49.2c0.4,0,0.8,0,1,0.1l-0.2,1.9c-0.3-0.1-0.6-0.1-0.9-0.1c-0.8,0-1.5,0.3-2,0.8s-0.8,1.2-0.8,2.1v5.1
		h-2.1v-9.7h1.6l0.3,1.7h0.1c0.3-0.6,0.7-1,1.3-1.4C250,49.3,250.6,49.2,251.2,49.2z"/>
</g>
</svg>
